<svg t="1536304274869" class="icon" style="" viewBox="0 0 1024 1024" version="1.1" xmlns="http://www.w3.org/2000/svg" p-id="3033" xmlns:xlink="http://www.w3.org/1999/xlink" width="16" height="16"><defs><style type="text/css"></style></defs><path d="M851.428571 755.428571q0 22.857143-16 38.857143l-77.714286 77.714286q-16 16-38.857143 16t-38.857143-16l-168-168-168 168q-16 16-38.857143 16t-38.857143-16l-77.714286-77.714286q-16-16-16-38.857143t16-38.857143l168-168-168-168q-16-16-16-38.857143t16-38.857143l77.714286-77.714286q16-16 38.857143-16t38.857143 16l168 168 168-168q16-16 38.857143-16t38.857143 16l77.714286 77.714286q16 16 16 38.857143t-16 38.857143l-168 168 168 168q16 16 16 38.857143z" p-id="3034" fill="#e16531"></path></svg>